<?xml version="1.0" encoding="utf-8"?>
<!-- Generator: Adobe Illustrator 22.1.0, SVG Export Plug-In . SVG Version: 6.00 Build 0)  -->
<svg version="1.1" id="Layer_1" xmlns="http://www.w3.org/2000/svg" xmlns:xlink="http://www.w3.org/1999/xlink" x="0px" y="0px"
	 viewBox="0 0 1771 2500" style="enable-background:new 0 0 1771 2500;" xml:space="preserve">
<style type="text/css">
	.st0{fill:#EF0A26;}
	.st1{fill:#EA0F0F;}
	.st2{fill:#EBEBEB;}
	.st3{fill:#FFFFFF;}
</style>
<path class="st0" d="M161.2,2053.5L0,245.7h1771l-161.3,1807.5l-725.2,201.1L161.2,2053.5z"/>
<path class="st1" d="M885.5,2103.5l586-162.5l137.9-1544.6H885.5V2103.5z"/>
<g>
	<path class="st2" d="M885.5,1071H592.1l-20.3-227h313.6V622.2H329.6l5.3,59.5l54.5,611h496.1V1071z M885.5,1646.8l-1,0.3
		l-246.9-66.7l-15.8-176.8H399.3l31.1,348.1l454.2,126.1l1-0.3L885.5,1646.8z"/>
</g>
<g>
	<path class="st3" d="M884.7,1071v221.7h273l-25.7,287.5L884.7,1647v230.7l454.5-126l3.3-37.5l52.1-583.7l5.4-59.5h-59.7L884.7,1071
		z M884.7,622.3V844h535.5l4.4-49.8l10.1-112.4l5.3-59.5L884.7,622.3z"/>
</g>
</svg>
