<?xml version="1.0" encoding="utf-8"?>
<!-- Generator: Adobe Illustrator 22.1.0, SVG Export Plug-In . SVG Version: 6.00 Build 0)  -->
<svg version="1.1" id="Layer_1" xmlns="http://www.w3.org/2000/svg" xmlns:xlink="http://www.w3.org/1999/xlink" x="0px" y="0px"
	 viewBox="0 0 1344 2500" style="enable-background:new 0 0 1344 2500;" xml:space="preserve">
<style type="text/css">
	.st0{fill:#86CEF7;}
	.st1{fill:#FF9C4A;}
</style>
<path class="st0" d="M444.4,1326.1c0,0-65.5,38.1,46.6,51c135.9,15.5,205.3,13.3,355-15.1c0,0,39.4,24.7,94.3,46.1
	C604.7,1552,180.7,1399.8,444.4,1326.1 M403.3,1138.4c0,0-73.5,54.4,38.7,66c145.1,15,259.8,16.2,458.1-22c0,0,27.4,27.8,70.6,43
	C564.9,1344.1,112.9,1234.8,403.3,1138.4"/>
<path class="st1" d="M749.1,820c82.7,95.2-21.7,180.9-21.7,180.9s210-108.4,113.5-244.2c-90.1-126.6-159.1-189.5,214.8-406.4
	C1055.7,350.4,468.8,496.9,749.1,820"/>
<path class="st0" d="M1193,1465c0,0,48.5,40-53.4,70.9c-193.7,58.7-806.4,76.4-976.5,2.3c-61.2-26.6,53.5-63.6,89.6-71.3
	c37.6-8.2,59.1-6.6,59.1-6.6c-68-47.9-439.7,94.1-188.8,134.8C807.4,1706,1370.5,1545,1193,1465 M475.9,943.9
	c0,0-311.6,74-110.4,100.9c85,11.4,254.4,8.8,412.2-4.4c129-10.9,258.5-34,258.5-34s-45.5,19.5-78.4,41.9
	c-316.4,83.2-927.7,44.5-751.8-40.6C354.8,935.7,475.9,943.9,475.9,943.9 M1034.9,1256.4c321.7-167.2,173-327.8,69.1-306.2
	c-25.4,5.3-36.8,9.9-36.8,9.9s9.5-14.8,27.5-21.2c205.4-72.2,363.3,213-66.3,325.9C1028.4,1264.8,1033.4,1260.4,1034.9,1256.4"/>
<path class="st1" d="M840.9,0.2c0,0,178.2,178.2-169,452.2c-278.4,219.8-63.5,345.2-0.1,488.4C509.4,794.2,390.1,665.1,470.1,545
	C587.5,368.7,912.8,283.2,840.9,0.2"/>
<path class="st0" d="M507.5,1709.3c308.8,19.8,782.9-11,794.1-157.1c0,0-21.6,55.4-255.2,99.4c-263.5,49.6-588.6,43.8-781.4,12
	C265.1,1663.6,304.5,1696.3,507.5,1709.3"/>
</svg>
