<?xml version="1.0" encoding="utf-8"?>
<!-- Generator: Adobe Illustrator 22.1.0, SVG Export Plug-In . SVG Version: 6.00 Build 0)  -->
<svg version="1.1" id="Layer_1" xmlns="http://www.w3.org/2000/svg" xmlns:xlink="http://www.w3.org/1999/xlink" x="0px" y="0px"
	 viewBox="0 0 512 512" style="enable-background:new 0 0 512 512;" xml:space="preserve">
<style type="text/css">
	.st0{fill:#C0C9FF;}
</style>
<path class="st0" d="M241.2,190.2c-11.2-1-21.2,7.1-22.2,18.3c-1.1,11.3,7.1,21.2,18.3,22.3c12.3,1.2,23.3,7.6,30,17.6
	c6.7,10,8.4,22.6,4.8,34.4c-3.3,10.8,2.8,22.2,13.6,25.4c6.1,1.9,12.4,0.7,17.3-2.5c3.8-2.5,6.7-6.3,8.2-11
	c7.2-23.6,3.6-48.8-9.9-69S265.8,192.6,241.2,190.2z M248.6,108.9c-11.1-1.1-21.1,7.1-22.3,18.3c-1.1,11.2,7.1,21.2,18.3,22.3
	c37,3.6,69.8,23,90,53.1s25.5,67.8,14.7,103.4c-3.3,10.8,2.8,22.1,13.6,25.4c6.1,1.8,12.3,0.7,17.2-2.6c3.8-2.5,6.7-6.3,8.2-11
	c14.8-46.7,7.5-97-19.8-137.9S298.3,114.3,248.6,108.9z M257,27.8c-11.1-1.1-21.1,7.1-22.3,18.3c-1.1,11.2,7.1,21.2,18.3,22.3
	c61.1,5.9,115.7,38.6,149.4,88.9s43.4,113.9,25.5,172.6c-3.3,10.8,2.8,22.1,13.6,25.4c6.1,1.8,12.3,0.7,17.2-2.6
	c3.8-2.5,6.7-6.3,8.2-11c21.8-69.9,10.7-145.3-30.6-207.1S330.3,34.9,257,27.8z M143.7,248c7.4-3.9,12.3-13.4,10.4-22.2l-16-75.5
	c-2.1-9.7-11.8-16.7-20.6-16.2l-67.5,2.1c-9.5,0.3-17.6,7.1-19.4,16.5c-32.1,161.6,73.4,319.2,235,351.3c9.4,1.9,18.7-2.9,22.6-11.6
	l27.7-61.6c4-8.9,1.1-19.6-7.1-25.2l-63.6-43.6c-7.5-5.2-17.6-4.7-24.5,1.1l-35.1,28.9c-40-30.6-68.9-73.8-81.9-122.5L143.7,248z"/>
</svg>
