<?xml version="1.0" encoding="utf-8"?>
<!-- Generator: Adobe Illustrator 22.1.0, SVG Export Plug-In . SVG Version: 6.00 Build 0)  -->
<svg version="1.1" id="Layer_1" xmlns="http://www.w3.org/2000/svg" xmlns:xlink="http://www.w3.org/1999/xlink" x="0px" y="0px"
	 viewBox="0 0 256 255" style="enable-background:new 0 0 256 255;" xml:space="preserve">
<style type="text/css">
	.st0{fill:#9592FF;}
	.st1{fill:url(#SVGID_1_);}
</style>
<path class="st0" d="M126.9,0.1c-64.8,0-60.8,28.1-60.8,28.1l0.1,29.1h61.9v8.7H41.6c0,0-41.5-4.7-41.5,60.7
	c0,65.4,36.2,63.1,36.2,63.1H58v-30.4c0,0-1.2-36.2,35.6-36.2H155c0,0,34.5,0.6,34.5-33.3V34C189.4,34,194.7,0.1,126.9,0.1
	L126.9,0.1L126.9,0.1z M92.8,19.7c6.2,0,11.1,5,11.1,11.1s-5,11.1-11.1,11.1c-6.2,0-11.1-5-11.1-11.1C81.7,24.6,86.6,19.7,92.8,19.7
	L92.8,19.7L92.8,19.7z"/>
<linearGradient id="SVGID_1_" gradientUnits="userSpaceOnUse" x1="-175.8773" y1="522.3788" x2="-175.1612" y2="521.7004" gradientTransform="matrix(189.3834 0 0 -189.8058 33410.0117 99254.5625)">
	<stop  offset="0" style="stop-color:#FFE052"/>
	<stop  offset="1" style="stop-color:#FFC331"/>
</linearGradient>
<path class="st1" d="M128.8,254.1c64.8,0,60.8-28.1,60.8-28.1l-0.1-29.1h-61.9v-8.7H214c0,0,41.5,4.7,41.5-60.7
	c0-65.4-36.2-63.1-36.2-63.1h-21.6v30.4c0,0,1.2,36.2-35.6,36.2h-61.4c0,0-34.5-0.6-34.5,33.3v56C66.2,220.2,61,254.1,128.8,254.1
	L128.8,254.1L128.8,254.1z M162.9,234.5c-6.2,0-11.1-5-11.1-11.1c0-6.2,5-11.1,11.1-11.1c6.2,0,11.1,5,11.1,11.1
	C174,229.6,169,234.5,162.9,234.5L162.9,234.5L162.9,234.5z"/>
</svg>
