<?xml version="1.0" encoding="utf-8"?>
<!-- Generator: Adobe Illustrator 22.1.0, SVG Export Plug-In . SVG Version: 6.00 Build 0)  -->
<svg version="1.1" id="Layer_1" xmlns="http://www.w3.org/2000/svg" xmlns:xlink="http://www.w3.org/1999/xlink" x="0px" y="0px"
	 viewBox="0 0 448 512" style="enable-background:new 0 0 448 512;" xml:space="preserve">
<style type="text/css">
	.st0{fill:#CBC2FF;}
</style>
<path class="st0" d="M224,122.8c-72.7,0-131.8,59.1-131.9,131.8c0,24.9,7,49.2,20.2,70.1l3.1,5l-13.3,48.6l49.9-13.1l4.8,2.9
	c20.2,12,43.4,18.4,67.1,18.4h0.1c72.6,0,133.3-59.1,133.3-131.8c0-35.2-15.2-68.3-40.1-93.2C292.2,136.5,259.2,122.8,224,122.8
	L224,122.8z M301.5,311.2c-3.3,9.3-19.1,17.7-26.7,18.8c-12.6,1.9-22.4,0.9-47.5-9.9c-39.7-17.2-65.7-57.2-67.7-59.8
	c-2-2.6-16.2-21.5-16.2-41s10.2-29.1,13.9-33.1c3.6-4,7.9-5,10.6-5c2.6,0,5.3,0,7.6,0.1c2.4,0.1,5.7-0.9,8.9,6.8
	c3.3,7.9,11.2,27.4,12.2,29.4s1.7,4.3,0.3,6.9c-7.6,15.2-15.7,14.6-11.6,21.6c15.3,26.3,30.6,35.4,53.9,47.1c4,2,6.3,1.7,8.6-1
	c2.3-2.6,9.9-11.6,12.5-15.5c2.6-4,5.3-3.3,8.9-2s23.1,10.9,27.1,12.9s6.6,3,7.6,4.6C304.8,294,304.8,302,301.5,311.2z M400,32H48
	C21.5,32,0,53.5,0,80v352c0,26.5,21.5,48,48,48h352c26.5,0,48-21.5,48-48V80C448,53.5,426.5,32,400,32z M223.9,413.2
	c-26.6,0-52.7-6.7-75.8-19.3L64,416l22.5-82.2c-13.9-24-21.2-51.3-21.2-79.3C65.4,167.1,136.5,96,223.9,96
	c42.4,0,82.2,16.5,112.2,46.5c29.9,30,47.9,69.8,47.9,112.2C384,342.1,311.3,413.2,223.9,413.2L223.9,413.2z"/>
</svg>
